<svg xmlns="http://www.w3.org/2000/svg" xmlns:xlink="http://www.w3.org/1999/xlink"><defs><symbol viewBox="0 0 24 24" id="icon-play"><path d="M14.5 11a1.5 1.5 0 1 1 0-3H16V7c0-2.206-1.794-4-4-4S8 4.794 8 7v1h1.5a1.5 1.5 0 1 1 0 3H8v1a4.016 4.016 0 0 0 2.908 3.85 1.5 1.5 0 0 1-.816 2.887A7.025 7.025 0 0 1 5 12.001V7c0-3.86 3.141-7 7-7s7 3.14 7 7v2.5a1.5 1.5 0 0 1-1.5 1.5zm-4 10C6.364 21 3 17.636 3 13.5V13a1.5 1.5 0 1 0-3 0v.5C0 19.29 4.71 24 10.5 24a1.5 1.5 0 1 0 0-3m12-9.5A1.5 1.5 0 0 0 21 13v.5a1.5 1.5 0 1 0 3 0V13a1.5 1.5 0 0 0-1.5-1.5m.02 5.731-6.156-3.944c-1.003-.642-2.319.078-2.319 1.268v7.888a1.506 1.506 0 0 0 2.319 1.268l6.156-3.944a1.507 1.507 0 0 0 0-2.537Z" /></symbol><symbol viewBox="0 0 24 24" id="icon-stop"><path d="M12 0C5.383 0 0 5.383 0 12s5.383 12 12 12 12-5.383 12-12S18.617 0 12 0m0 21c-4.962 0-9-4.038-9-9s4.038-9 9-9 9 4.038 9 9-4.038 9-9 9m4-11v4a2 2 0 0 1-2 2h-4a2 2 0 0 1-2-2v-4a2 2 0 0 1 2-2h4a2 2 0 0 1 2 2" /></symbol></defs></svg>